<svg width="36" height="35" viewBox="0 0 36 35" fill="none" xmlns="http://www.w3.org/2000/svg">
<g clip-path="url(#clip0_1_3281)">
<g clip-path="url(#clip1_1_3281)">
<g clip-path="url(#clip2_1_3281)">
<path fill-rule="evenodd" clip-rule="evenodd" d="M10.3683 1.0791H25.6317C26.9832 1.0791 28.0892 2.18512 28.0892 3.53653V18.7999C28.0892 20.1513 26.9832 21.2573 25.6317 21.2573H10.3683C9.0169 21.2573 7.91089 20.1513 7.91089 18.7999V3.53653C7.91089 2.18512 9.0169 1.0791 10.3683 1.0791Z" fill="#FFD164"/>
<path fill-rule="evenodd" clip-rule="evenodd" d="M14.7331 1.0791H21.2666V9.10528C21.2666 9.31481 21.159 9.4941 20.9734 9.59324C20.7899 9.69309 20.581 9.68465 20.4053 9.57145L18.3043 8.19825C18.1152 8.0745 17.8839 8.0745 17.6947 8.19825L15.5938 9.57145C15.4187 9.68535 15.2092 9.69309 15.0256 9.59324C14.84 9.4934 14.7324 9.3141 14.7324 9.10528L14.7331 1.0791Z" fill="#FF4155"/>
<path fill-rule="evenodd" clip-rule="evenodd" d="M10.3683 1.0791H12.1739C10.8225 1.0791 9.71651 2.18512 9.71651 3.53653V18.7999C9.71651 20.1513 10.8225 21.2573 12.1739 21.2573H10.3683C9.0169 21.2573 7.91089 20.1513 7.91089 18.7999V3.53653C7.91089 2.18512 9.0169 1.0791 10.3683 1.0791Z" fill="#E6BC5A"/>
<path fill-rule="evenodd" clip-rule="evenodd" d="M2.86035 27.8268L4.7834 28.2395C12.2478 29.0306 16.1684 37.5053 27.8937 28.949L32.4141 27.9822L30.4868 18.0365L26.7856 18.8275C19.7122 14.7416 14.0555 17.2089 8.8798 18.7558L6.90051 18.3332L5.07309 17.9423L2.86035 27.8268Z" fill="#FFDAA2"/>
<path fill-rule="evenodd" clip-rule="evenodd" d="M30.4868 18.0362L26.7855 18.8273C23.658 16.9316 19.8893 16.0366 15.0265 17.0076L11.3034 20.4775C8.50918 23.0608 13.2989 23.3694 16.4236 20.2546C18.7636 24.7251 24.7387 24.8629 27.8936 28.9487L32.414 27.9819L30.4868 18.0362Z" fill="#FBBD80"/>
<path fill-rule="evenodd" clip-rule="evenodd" d="M9.60697 30.4013L11.4723 28.7553C12.0566 28.2413 12.1143 27.3399 11.5982 26.7563C11.0821 26.172 10.1828 26.1143 9.59713 26.6304L7.73174 28.275C7.14744 28.7911 7.0919 29.6904 7.60588 30.2761C8.12268 30.8597 9.02338 30.916 9.60697 30.4013Z" fill="#FBBD80"/>
<path fill-rule="evenodd" clip-rule="evenodd" d="M12.9058 31.2708L14.7712 29.6262C15.3555 29.1101 15.4132 28.2108 14.8971 27.6251C14.381 27.0408 13.4817 26.9852 12.896 27.4992L11.0306 29.1452C10.4463 29.6592 10.3907 30.5606 10.9047 31.1442C11.4208 31.7292 12.3215 31.7869 12.9058 31.2708Z" fill="#FBBD80"/>
<path fill-rule="evenodd" clip-rule="evenodd" d="M15.5786 32.6914L17.444 31.0468C18.0283 30.5328 18.0859 29.6314 17.5698 29.0478C17.0559 28.4621 16.1544 28.4058 15.5709 28.9219L13.7055 30.5665C13.1198 31.0805 13.0635 31.9819 13.5796 32.5655C14.0936 33.1519 14.9943 33.2082 15.5786 32.6914Z" fill="#FBBD80"/>
<path fill-rule="evenodd" clip-rule="evenodd" d="M17.7631 30.7662L17.247 31.2226C16.6613 31.7387 16.605 32.638 17.1197 33.2215C17.6358 33.8072 18.5365 33.8635 19.1208 33.3488L19.639 32.8904C20.2233 32.3764 20.281 31.475 19.7649 30.8914C19.2474 30.3078 18.3488 30.2501 17.7631 30.7662Z" fill="#FBBD80"/>
<path fill-rule="evenodd" clip-rule="evenodd" d="M0.00170898 27.2164L2.11872 17.3101L6.90274 18.3324L4.78573 28.2388L0.00170898 27.2164Z" fill="#0593FC"/>
<path fill-rule="evenodd" clip-rule="evenodd" d="M29.1018 18.3359L33.8858 17.3135L36.0028 27.2199L31.2188 28.2423L29.1018 18.3359Z" fill="#0593FC"/>
<path fill-rule="evenodd" clip-rule="evenodd" d="M2.11711 17.311L3.11977 17.5268L1.00266 27.4303L0 27.2173L2.11711 17.311Z" fill="#0584E3"/>
</g>
</g>
</g>
<defs>
<clipPath id="clip0_1_3281">
<rect width="36" height="34" fill="white" transform="translate(0 0.390137)"/>
</clipPath>
<clipPath id="clip1_1_3281">
<rect width="36" height="34" fill="white" transform="translate(0 0.390137)"/>
</clipPath>
<clipPath id="clip2_1_3281">
<rect width="36" height="34" fill="white" transform="translate(0 0.390137)"/>
</clipPath>
</defs>
</svg>
