<svg width="32" height="33" viewBox="0 0 32 33" fill="none" xmlns="http://www.w3.org/2000/svg">
<g clip-path="url(#clip0_1_3303)">
<g clip-path="url(#clip1_1_3303)">
<g clip-path="url(#clip2_1_3303)">
<mask id="mask0_1_3303" style="mask-type:luminance" maskUnits="userSpaceOnUse" x="0" y="0" width="32" height="33">
<path d="M32 0.390137H0V32.3901H32V0.390137Z" fill="white"/>
</mask>
<g mask="url(#mask0_1_3303)">
<path d="M32.0003 4.99259V9.72875H26.062V4.99259C26.0591 3.35543 27.384 2.02606 29.0209 2.02344H29.0358C30.6712 2.02344 31.9974 3.34785 32.0003 4.98319V4.99259Z" fill="#00ACEA"/>
<path d="M7.6708 2.02344H29.021C27.3841 2.02606 26.0592 3.35543 26.062 4.99259V26.748C26.0594 28.9501 24.2736 30.7338 22.0716 30.7338H22.0595C21.9673 30.7338 21.8761 30.7304 21.7852 30.7239C19.6932 30.5776 18.0714 28.8367 18.0738 26.7394V24.1596H4.70166V24.124L4.84275 4.81597C4.84275 3.26085 6.11569 2.02344 7.6708 2.02344ZM19.3057 11.4644V7.64795L15.0978 5.58099L10.8907 7.64194V11.4644C10.8907 12.4424 11.5241 13.6403 12.3327 14.1921L15.0978 16.0775L17.8629 14.1921C18.6716 13.6403 19.3057 12.4424 19.3057 11.4644Z" fill="#00EFD1"/>
<path d="M21.785 30.724L21.7845 30.734H3.99048C1.78844 30.734 0.00261277 28.9502 0 26.7482V24.1597H18.0736V26.7396C18.0712 28.8368 19.6929 30.5777 21.785 30.724Z" fill="#00ACEA"/>
<path d="M19.3055 7.64801V11.4645C19.3055 12.4424 18.6714 13.6404 17.8628 14.1922L15.0977 16.0776L12.3326 14.1922C11.5239 13.6404 10.8906 12.4424 10.8906 11.4645V7.642L15.0977 5.58105L19.3055 7.64801Z" fill="#00ACEA"/>
<path d="M14.5718 12.429H14.5705C14.4281 12.4285 14.2917 12.3715 14.1916 12.2704L13.1146 11.1827C12.978 11.0474 12.9244 10.8491 12.9746 10.663C13.0248 10.4773 13.1708 10.3328 13.3571 10.2845C13.5434 10.2361 13.7412 10.2918 13.8752 10.4297L14.5739 11.1352L16.3226 9.38723C16.5316 9.17821 16.8705 9.17821 17.0793 9.38723C17.2883 9.59625 17.2883 9.93487 17.0793 10.1439L14.9504 12.2722C14.8498 12.3726 14.7137 12.429 14.5718 12.429Z" fill="#FEDB41"/>
<path d="M21.7524 19.121H8.91009C8.61459 19.121 8.375 18.8817 8.375 18.5859C8.375 18.2904 8.61459 18.0508 8.91009 18.0508H21.7524C22.0479 18.0508 22.2875 18.2904 22.2875 18.5859C22.2875 18.8817 22.0479 19.121 21.7524 19.121Z" fill="#00ACEA"/>
<path d="M21.7524 21.5956H8.91009C8.61459 21.5956 8.375 21.3563 8.375 21.0605C8.375 20.765 8.61459 20.5254 8.91009 20.5254H21.7524C22.0479 20.5254 22.2875 20.765 22.2875 21.0605C22.2875 21.3563 22.0479 21.5956 21.7524 21.5956Z" fill="#00ACEA"/>
</g>
</g>
</g>
</g>
<defs>
<clipPath id="clip0_1_3303">
<rect width="32" height="32" fill="white" transform="translate(0 0.390137)"/>
</clipPath>
<clipPath id="clip1_1_3303">
<rect width="32" height="32" fill="white" transform="translate(0 0.390137)"/>
</clipPath>
<clipPath id="clip2_1_3303">
<rect width="32" height="32" fill="white" transform="translate(0 0.390137)"/>
</clipPath>
</defs>
</svg>
