<svg width="28" height="35" viewBox="0 0 28 35" fill="none" xmlns="http://www.w3.org/2000/svg">
<g clip-path="url(#clip0_1_3236)">
<g clip-path="url(#clip1_1_3236)">
<path d="M27.5563 7.09668V16.1529C27.5563 24.3654 21.9876 31.5654 14.0001 33.5904C6.0126 31.5654 0.443848 24.3654 0.443848 16.1529V7.09668C6.6876 6.36543 10.2876 4.00293 14.0001 1.19043C17.7126 4.00293 21.3126 6.36543 27.5563 7.09668Z" fill="#FFD15D"/>
<path d="M14 29.9904C7.98125 28.0779 3.875 22.5091 3.875 16.1529V10.0216C8.09375 9.12158 11.1875 7.37783 14 5.46533C16.8687 7.43408 19.9062 9.12158 24.125 10.0216V16.1529C24.125 22.5091 20.0187 28.0779 14 29.9904Z" fill="#F5B92D"/>
<path d="M11.75 22.9028L8.375 19.584L10.1188 17.8965L11.75 19.5278L17.8813 13.3965L19.625 15.084L11.75 22.9028Z" fill="white"/>
</g>
</g>
<defs>
<clipPath id="clip0_1_3236">
<rect width="28" height="34" fill="white" transform="translate(0 0.390137)"/>
</clipPath>
<clipPath id="clip1_1_3236">
<rect width="28" height="34" fill="white" transform="translate(0 0.390137)"/>
</clipPath>
</defs>
</svg>
