<svg width="36" height="37" viewBox="0 0 36 37" fill="none" xmlns="http://www.w3.org/2000/svg">
<g clip-path="url(#clip0_1_3249)">
<g clip-path="url(#clip1_1_3249)">
<g clip-path="url(#clip2_1_3249)">
<mask id="mask0_1_3249" style="mask-type:luminance" maskUnits="userSpaceOnUse" x="0" y="0" width="36" height="37">
<path d="M36 0.390137H0V36.3901H36V0.390137Z" fill="white"/>
</mask>
<g mask="url(#mask0_1_3249)">
<path d="M25.7203 20.1728L18.6762 22.0044C18.2409 22.1176 17.7841 22.1199 17.3477 22.0111L9.91658 20.1581C8.73814 19.8642 7.91113 18.8057 7.91113 17.5911V9.47253C7.91106 4.45644 11.9775 0.390137 16.9936 0.390137H18.6177C23.6338 0.390137 27.7001 4.45644 27.7001 9.47253V17.6124C27.7001 18.8171 26.8862 19.8696 25.7203 20.1728Z" fill="#FD9727"/>
<path d="M18.6179 0.390137H16.9938C16.5858 0.390137 16.1843 0.417488 15.7905 0.46959C20.2378 1.05831 23.6697 4.8644 23.6697 9.47253V17.6124C23.6697 18.8171 22.8559 19.8696 21.6899 20.1728L15.9556 21.6639L17.3479 22.0111C17.7844 22.1199 18.2411 22.1176 18.6765 22.0044L25.7206 20.1728C26.8865 19.8696 27.7004 18.8171 27.7004 17.6123V9.47253C27.7003 4.45644 23.634 0.390137 18.6179 0.390137Z" fill="#FF6D3A"/>
<path d="M8.33137 15.1424H10.2586V10.437H8.33137C7.76515 10.437 7.30615 10.896 7.30615 11.4622V14.1171C7.30615 14.6834 7.76515 15.1424 8.33137 15.1424Z" fill="#3D6687"/>
<path d="M27.6679 15.1424H25.7407V10.437H27.6679C28.2342 10.437 28.6932 10.896 28.6932 11.4622V14.1171C28.6932 14.6834 28.2342 15.1424 27.6679 15.1424Z" fill="#3D6687"/>
<path d="M22.3515 23.3528C21.6775 23.2173 21.1925 22.6252 21.1925 21.9377V18.6841H17.9997H14.807V21.9377C14.807 22.6252 14.322 23.2173 13.648 23.3528L12.8701 23.5092V28.734H17.9997H23.1294V23.5092L22.3515 23.3528Z" fill="#FED9A8"/>
<path d="M28.9992 25.1068L22.5953 23.1101C22.3965 23.0481 22.1797 23.0984 22.0286 23.2416L17.9999 27.0595L13.9712 23.2417C13.82 23.0985 13.6032 23.0481 13.4045 23.1101L7.00053 25.1069C4.16132 25.9428 2.21191 28.549 2.21191 31.5087V35.775C2.21191 36.1146 2.48725 36.39 2.82686 36.39H33.1729C33.5125 36.39 33.7879 36.1146 33.7879 35.775V31.5087C33.7878 28.5489 31.8384 25.9427 28.9992 25.1068Z" fill="#FF4C4C"/>
<path d="M28.9991 25.1068L22.5952 23.1101C22.3964 23.0481 22.1797 23.0984 22.0285 23.2416L21.2754 23.9553L24.9685 25.1068C27.8077 25.9427 29.7571 28.5489 29.7571 31.5087V36.3899H33.1728C33.5125 36.3899 33.7878 36.1145 33.7878 35.7749V31.5087C33.7877 28.5489 31.8383 25.9427 28.9991 25.1068Z" fill="#EF2929"/>
<path d="M17.9999 21.3893C13.6046 21.3893 10.0415 17.8262 10.0415 13.4309V11.1943C10.0415 6.79899 13.6047 3.23584 17.9999 3.23584C22.3952 3.23584 25.9584 6.79899 25.9584 11.1943V13.4309C25.9584 17.8263 22.3953 21.3893 17.9999 21.3893Z" fill="#FED9A8"/>
<path d="M21.9276 4.27148V13.4309C21.9276 17.1299 19.4039 20.2393 15.9844 21.1317C16.6281 21.2996 17.3034 21.3894 17.9997 21.3894C22.3951 21.3894 25.9582 17.8262 25.9582 13.4309V11.1943C25.9582 8.22746 24.3346 5.64011 21.9276 4.27148Z" fill="#F4C892"/>
<path d="M13.971 23.2421L17.9997 27.06L15.5152 27.9064C14.9064 28.1137 14.2327 27.9335 13.8088 27.4498L10.7358 23.9426L13.4043 23.1106C13.6032 23.0486 13.8199 23.0989 13.971 23.2421Z" fill="#D4145A"/>
<path d="M22.0287 23.2421L18 27.06L20.2518 27.8271C21.0014 28.0824 21.831 27.8604 22.3529 27.2649L25.2639 23.9426L22.5954 23.1106C22.3965 23.0486 22.1798 23.0989 22.0287 23.2421Z" fill="#D4145A"/>
<path d="M13.2459 33.2322H9.14961C8.92215 33.2322 8.73779 33.0478 8.73779 32.8204V31.006C8.73779 30.7786 8.92215 30.5942 9.14961 30.5942H13.2459C13.4734 30.5942 13.6577 30.7786 13.6577 31.006V32.8204C13.6578 33.0478 13.4734 33.2322 13.2459 33.2322Z" fill="#EDA558"/>
<path d="M27.7002 11.1501C27.7002 11.1501 24.2665 10.8775 23.0916 7.71922C23.0916 7.71922 14.7913 14.3645 7.91113 11.1501V9.47253C7.91113 4.45644 11.9776 0.390137 16.9936 0.390137H18.6178C23.6339 0.390137 27.7002 4.45644 27.7002 9.47253V11.1501Z" fill="#FD9727"/>
<path d="M18.6179 0.390137H16.9938C16.5858 0.390137 16.1843 0.417488 15.7905 0.46959C20.0192 1.02935 23.3296 4.49807 23.6448 8.79915C25.0928 10.9427 27.7003 11.1501 27.7003 11.1501V9.47253C27.7003 4.45644 23.634 0.390137 18.6179 0.390137Z" fill="#FF6D3A"/>
<path d="M29.6917 30.3315C29.3914 30.3315 29.1479 30.575 29.1479 30.8753V36.3899H30.2355V30.8753C30.2356 30.5749 29.992 30.3315 29.6917 30.3315Z" fill="#D4145A"/>
<path d="M6.30796 30.3315C6.00765 30.3315 5.76416 30.575 5.76416 30.8753V36.3899H6.85168V30.8753C6.85168 30.5749 6.60826 30.3315 6.30796 30.3315Z" fill="#D4145A"/>
<path d="M26.1801 15.1426V16.1345C26.1801 16.9895 25.5685 17.7151 24.7257 17.8595L19.2538 18.7979C18.9581 18.8485 18.7594 19.1294 18.8101 19.4252C18.8555 19.6898 19.0852 19.8767 19.3449 19.8767C19.3755 19.8767 19.4063 19.8742 19.4374 19.8688L24.9093 18.9305C26.2752 18.6962 27.2666 17.5204 27.2666 16.1345V15.1426H26.1801Z" fill="#3D6687"/>
<path d="M19.4184 20.3996C18.9158 20.3996 18.4713 20.038 18.3834 19.5259C18.2853 18.9537 18.6697 18.4102 19.2419 18.312L21.0146 18.008C21.5869 17.9097 22.1303 18.2942 22.2285 18.8664C22.3266 19.4386 21.9422 19.9822 21.37 20.0803L19.5973 20.3843C19.5372 20.3946 19.4773 20.3996 19.4184 20.3996Z" fill="#D4145A"/>
</g>
</g>
</g>
</g>
<defs>
<clipPath id="clip0_1_3249">
<rect width="36" height="36" fill="white" transform="translate(0 0.390137)"/>
</clipPath>
<clipPath id="clip1_1_3249">
<rect width="36" height="36" fill="white" transform="translate(0 0.390137)"/>
</clipPath>
<clipPath id="clip2_1_3249">
<rect width="36" height="36" fill="white" transform="translate(0 0.390137)"/>
</clipPath>
</defs>
</svg>
