<svg width="35" height="35" viewBox="0 0 35 35" fill="none" xmlns="http://www.w3.org/2000/svg">
<mask id="mask0_1_3695" style="mask-type:luminance" maskUnits="userSpaceOnUse" x="0" y="0" width="35" height="35">
<path d="M35 0.269531H0.125V34.0195H35V0.269531Z" fill="white"/>
</mask>
<g mask="url(#mask0_1_3695)">
<path d="M35 34.0198H0.125C1.65423 33.265 3.11995 32.3825 4.50726 31.3814C7.11772 29.4976 10.6613 27.6079 14.7365 27.2456C21.6642 26.6298 30.2457 31.7255 35 34.0198Z" fill="black"/>
<path d="M17.5596 22.2764C16.0831 18.7324 13.4254 17.1928 12.0198 17.0539C11.6171 17.0273 11.2133 17.0854 10.8334 17.2246C10.4535 17.3637 10.1055 17.581 9.81086 17.863C10.0327 17.5881 10.2735 17.3298 10.5315 17.0902C10.1594 16.746 9.72226 16.4139 9.72226 16.4139C10.1121 16.6011 10.5374 16.8487 10.6909 16.9453C11.0945 16.5854 11.525 16.2584 11.9784 15.9672C11.5902 15.6463 11.1818 15.3519 10.7559 15.0857C11.2901 15.2665 11.8063 15.499 12.2974 15.78C12.9064 15.4234 13.54 15.1127 14.1932 14.8502C13.9387 14.6338 13.6725 14.4322 13.3959 14.2465C13.778 14.3841 14.1492 14.5516 14.5062 14.7476C15.2093 14.4752 15.9295 14.2513 16.6619 14.0774C13.0356 13.045 10.2007 14.1982 9.20846 15.2427C8.80551 15.6735 8.55054 16.2265 8.48204 16.8185C8.04935 15.8107 7.29298 14.9843 6.33816 14.4759C4.17656 13.5521 2.01496 15.3634 2.01496 15.3634C2.91329 15.1858 3.84333 15.2955 4.67857 15.6774L5.48178 15.14L4.93843 15.7981C5.78882 16.2469 6.55785 16.8412 7.21225 17.555C6.66822 17.2143 6.02441 17.0797 5.39319 17.1747C3.99347 17.4101 1.44798 19.1369 0.213623 22.7775C0.757073 22.2764 1.33541 21.8164 1.94408 21.401C1.994 20.9936 2.07095 20.5902 2.17442 20.1935C2.16979 20.5363 2.18557 20.879 2.22167 21.2199C2.80472 20.817 3.41676 20.4597 4.05253 20.1512C4.10386 19.5783 4.21069 19.012 4.37145 18.4607C4.33742 18.9713 4.33742 19.4836 4.37145 19.9942C4.85895 19.7767 5.36254 19.5991 5.87749 19.4629C5.87749 19.2758 5.93064 18.7807 6.00151 18.346C6.00151 18.346 6.00151 18.9014 6.0842 19.4086C6.27713 19.3643 6.47399 19.3281 6.6748 19.2999C5.96608 20.0123 5.25145 21.5519 5.31642 24.8605C5.31642 24.8605 5.73574 23.8764 6.27319 22.85C6.16924 22.4376 6.11372 22.014 6.10782 21.5881C6.10782 21.5881 6.26138 22.0893 6.43265 22.5421C6.59211 22.2402 6.76339 21.9383 6.92876 21.6787L6.9701 21.6123C6.91104 21.2863 6.80473 20.6342 6.7752 20.1814C6.7752 20.1814 6.94648 20.7851 7.14728 21.3346C7.55034 20.6992 8.02401 20.1137 8.55882 19.5897C11.8544 25.3737 11.5119 33.7961 11.5119 33.7961L13.0592 33.6572C12.634 25.6273 10.0826 20.8395 9.13166 19.312C9.89916 19.1695 10.6854 19.1695 11.4528 19.312C11.4528 18.7988 11.4528 18.2433 11.4528 18.2433C11.5532 18.672 11.6241 19.1671 11.6477 19.3482C12.1715 19.4477 12.6869 19.589 13.1892 19.7708C13.2001 19.2526 13.1764 18.7341 13.1183 18.2192C13.3157 18.7587 13.4601 19.3169 13.5494 19.8855C14.2146 20.1396 14.8602 20.4443 15.4807 20.7972C15.5 20.4554 15.5 20.1127 15.4807 19.7708C15.6103 20.1656 15.7129 20.5691 15.7878 20.9783C16.4081 21.367 17.0003 21.8008 17.5596 22.2764Z" fill="black"/>
<path d="M8.57075 15.8405C9.42122 10.461 12.5514 7.43016 14.4413 6.74791C14.9841 6.56989 15.5571 6.50857 16.1243 6.56779C16.6914 6.62702 17.2404 6.80551 17.7369 7.09206C17.3411 6.7992 16.9245 6.53685 16.4907 6.30717C16.8864 5.70342 17.3766 5.09966 17.3766 5.09966C16.9041 5.4921 16.408 5.98114 16.2249 6.16227C15.554 5.81395 14.8568 5.52119 14.1401 5.28682C14.5627 4.70698 15.0224 4.15636 15.5162 3.63857C14.842 4.05995 14.2108 4.54943 13.6322 5.09966C12.6753 4.82623 11.7002 4.62444 10.7146 4.4959C10.9898 4.10156 11.2855 3.72266 11.6005 3.36084C11.1256 3.68842 10.6737 4.04954 10.248 4.44156C9.21192 4.30978 8.16757 4.25731 7.12378 4.28459C11.76 1.59183 16.03 2.18955 17.731 3.28839C18.4255 3.7401 18.9613 4.40625 19.2606 5.19022C19.6032 3.70498 20.241 2.1171 21.4163 1.22958C24.0386 -0.76282 27.6058 0.96393 27.6058 0.96393C26.3159 1.03256 25.0782 1.50702 24.0622 2.32238L22.7806 1.86352L23.7492 2.58199C22.7306 3.48839 21.8716 4.56663 21.2096 5.76983C21.848 5.13 22.682 4.73358 23.572 4.64684C25.58 4.4959 29.6552 5.96907 32.5432 10.5334C31.6254 10.0224 30.6743 9.57663 29.6965 9.19913C29.4973 8.65053 29.2584 8.11773 28.9819 7.60525C29.1009 8.07443 29.1935 8.55013 29.2595 9.03013C28.3239 8.68273 27.3645 8.40623 26.3892 8.20293C26.1312 7.43346 25.7967 6.69301 25.3911 5.99322C25.5979 6.68551 25.7577 7.39157 25.8694 8.10633C25.128 7.97514 24.3776 7.90448 23.6252 7.89505C23.5425 7.64751 23.3239 6.97734 23.0818 6.40981C23.0818 6.40981 23.2413 7.18262 23.3239 7.89505C23.0464 7.89505 22.7333 7.89505 22.4912 7.94335C23.6724 8.67993 25.1902 10.5395 26.1943 15.1039C26.1943 15.1039 25.2907 13.8964 24.2158 12.6889C24.2244 12.0792 24.1589 11.4708 24.0209 10.8776C24.0209 10.8776 23.9795 11.6202 23.8968 12.3024C23.5779 11.9462 23.2472 11.5961 22.9282 11.2881L22.8515 11.2157C22.8515 10.7448 22.7511 9.82103 22.6389 9.18713C22.6389 9.18713 22.6389 10.0806 22.5089 10.9017C21.7574 10.1841 20.927 9.55803 20.0343 9.03613C17.4416 18.0925 20.6899 29.5639 20.6899 29.5639L18.5165 29.914C16.4493 18.7626 18.357 11.2821 19.1543 8.84903C18.055 8.91233 16.9753 9.17393 15.9651 9.62183C15.7524 8.93353 15.593 8.16073 15.593 8.16073C15.5982 8.69133 15.6297 9.22123 15.6875 9.74863C14.9996 10.0634 14.3379 10.4349 13.709 10.8595C13.5307 10.1568 13.3985 9.44283 13.3133 8.72223C13.2241 9.52403 13.2122 10.3329 13.2778 11.1372C12.4666 11.727 11.6987 12.3768 10.9804 13.0813C10.8505 12.6146 10.746 12.1409 10.6674 11.6625C10.6276 12.2474 10.6276 12.8345 10.6674 13.4194C9.91142 14.1728 9.21072 14.982 8.57075 15.8405Z" fill="black"/>
</g>
</svg>
